# xmcd
#
# Track frame offsets:
#	150
#	11959
#	32033
#	44525
#	63383
#	81142
#	95042
#	110553
#	136846
#	160126
#	179812
#	195995
#	216741
#	230781
#	246551
#
# Disc length: 3613 seconds
#
# Revision: 10
# Processed by: cddbd v1.5.2PL0 Copyright (c) Steve Scherf et al.
# Submitted via: Jack! The Knife 20 Magnifico
#
DISCID=e50e1b0f
DTITLE=Bunbury - Licenciado Cantinas
DYEAR=2011
DGENRE=Rock
TTITLE0=El Mar, El Cielo Y Tú
TTITLE1=Llévame
TTITLE2=Mi Sueño Prohibido
TTITLE3=Pa' Llegar A Tu Lado
TTITLE4=Chacarera De Un Triste
TTITLE5=Ódiame
TTITLE6=Vida
TTITLE7=El Mulato (Licenciado)
TTITLE8=El Solitario (Diario de un Borracho)
TTITLE9=Ánimas, Que No Amanezca
TTITLE10=Que Me Lleve La Tristeza
TTITLE11=El Día De Mi Suerte
TTITLE12=Cosas Olvidadas
TTITLE13=La Tumba Será El Final
TTITLE14=El Cielo Está Dentro De Mí
EXTD=Enrique Bunbury
EXTT0=Agustín Lara
EXTT1=Louie Ortega
EXTT2=José Tejedor
EXTT3=Lhasa De Sela
EXTT4=Hermanos Simón
EXTT5=Barreto, Otero López
EXTT6=Pablo Casas Padilla
EXTT7=Ray, Cruz
EXTT8=Dorindo Cardenas
EXTT9=Guadalupe Ramos
EXTT10=Marcial Alejandro
EXTT11=Colon, Lavoe
EXTT12=Rodio, Contursí
EXTT13=Francisco Vidal
EXTT14=Yupanqui, Del Cerro
PLAYORDER=
